<svg width="122" height="84" viewBox="0 0 122 84" fill="none" xmlns="http://www.w3.org/2000/svg">
<path d="M55.382 82V66.25L53.882 62.8V34.6C53.882 29.6 52.332 25.7 49.232 22.9C46.232 20.1 41.582 18.7 35.282 18.7C30.982 18.7 26.732 19.4 22.532 20.8C18.432 22.1 14.932 23.9 12.032 26.2L3.63203 9.84999C8.03203 6.75 13.332 4.35 19.532 2.64999C25.732 0.949997 32.032 0.0999994 38.432 0.0999994C50.732 0.0999994 60.282 3 67.082 8.79999C73.882 14.6 77.282 23.65 77.282 35.95V82H55.382ZM30.782 83.2C24.482 83.2 19.082 82.15 14.582 80.05C10.082 77.85 6.63203 74.9 4.23203 71.2C1.83203 67.5 0.632031 63.35 0.632031 58.75C0.632031 53.95 1.78203 49.75 4.08203 46.15C6.48203 42.55 10.232 39.75 15.332 37.75C20.432 35.65 27.082 34.6 35.282 34.6H56.732V48.25H37.832C32.332 48.25 28.532 49.15 26.432 50.95C24.432 52.75 23.432 55 23.432 57.7C23.432 60.7 24.582 63.1 26.882 64.9C29.282 66.6 32.532 67.45 36.632 67.45C40.532 67.45 44.032 66.55 47.132 64.75C50.232 62.85 52.482 60.1 53.882 56.5L57.482 67.3C55.782 72.5 52.682 76.45 48.182 79.15C43.682 81.85 37.882 83.2 30.782 83.2ZM107.31 83.2C103.31 83.2 99.8602 81.85 96.9602 79.15C94.1602 76.35 92.7602 72.8 92.7602 68.5C92.7602 64.2 94.1602 60.75 96.9602 58.15C99.8602 55.45 103.31 54.1 107.31 54.1C111.41 54.1 114.86 55.45 117.66 58.15C120.46 60.75 121.86 64.2 121.86 68.5C121.86 72.8 120.46 76.35 117.66 79.15C114.86 81.85 111.41 83.2 107.31 83.2Z" fill="#222222"/>
</svg>
