<svg width="1920" height="239" viewBox="0 0 1920 239" fill="none" xmlns="http://www.w3.org/2000/svg">
<g clip-path="url(#clip0_27_5)">
<path d="M2.347 202V55.7H36.205V202H2.347ZM101.23 202V83.288H54.4141V55.7H181.904V83.288H135.088V202H101.23ZM231.262 114.638H301.695V140.972H231.262V114.638ZM233.77 174.83H313.399V202H200.121V55.7H310.682V82.87H233.77V174.83ZM340.339 202V55.7H368.345L430.627 158.946H415.788L477.025 55.7H504.822L505.24 202H473.472L473.263 104.397H479.115L430.209 186.534H414.952L365.001 104.397H372.107V202H340.339ZM670.2 204.508C658.635 204.508 647.907 202.627 638.014 198.865C628.261 195.103 619.761 189.808 612.516 182.981C605.41 176.154 599.837 168.142 595.796 158.946C591.895 149.75 589.944 139.718 589.944 128.85C589.944 117.982 591.895 107.95 595.796 98.754C599.837 89.558 605.48 81.5463 612.725 74.719C619.97 67.8917 628.47 62.597 638.223 58.835C647.976 55.073 658.566 53.192 669.991 53.192C681.556 53.192 692.145 55.073 701.759 58.835C711.512 62.597 719.942 67.8917 727.048 74.719C734.293 81.5463 739.936 89.558 743.977 98.754C748.018 107.811 750.038 117.843 750.038 128.85C750.038 139.718 748.018 149.82 743.977 159.155C739.936 168.351 734.293 176.363 727.048 183.19C719.942 189.878 711.512 195.103 701.759 198.865C692.145 202.627 681.625 204.508 670.2 204.508ZM669.991 175.666C676.54 175.666 682.531 174.551 687.965 172.322C693.538 170.093 698.415 166.888 702.595 162.708C706.775 158.528 709.98 153.582 712.209 147.869C714.578 142.156 715.762 135.817 715.762 128.85C715.762 121.883 714.578 115.544 712.209 109.831C709.98 104.118 706.775 99.172 702.595 94.992C698.554 90.812 693.747 87.6073 688.174 85.378C682.601 83.1487 676.54 82.034 669.991 82.034C663.442 82.034 657.381 83.1487 651.808 85.378C646.374 87.6073 641.567 90.812 637.387 94.992C633.207 99.172 629.933 104.118 627.564 109.831C625.335 115.544 624.22 121.883 624.22 128.85C624.22 135.677 625.335 142.017 627.564 147.869C629.933 153.582 633.137 158.528 637.178 162.708C641.358 166.888 646.235 170.093 651.808 172.322C657.381 174.551 663.442 175.666 669.991 175.666ZM806.834 121.535H877.058V148.705H806.834V121.535ZM809.342 202H775.484V55.7H886.045V82.87H809.342V202ZM998.461 202V83.288H951.645V55.7H1079.13V83.288H1032.32V202H998.461ZM1197.67 55.7H1231.53V202H1197.67V55.7ZM1131.21 202H1097.35V55.7H1131.21V202ZM1200.18 142.017H1128.7V113.384H1200.18V142.017ZM1297.28 114.638H1367.72V140.972H1297.28V114.638ZM1299.79 174.83H1379.42V202H1266.14V55.7H1376.7V82.87H1299.79V174.83ZM1465.55 202V55.7H1532.01C1547.9 55.7 1561.9 58.7653 1574.02 64.896C1586.14 70.8873 1595.62 79.317 1602.45 90.185C1609.27 101.053 1612.69 113.941 1612.69 128.85C1612.69 143.619 1609.27 156.508 1602.45 167.515C1595.62 178.383 1586.14 186.882 1574.02 193.013C1561.9 199.004 1547.9 202 1532.01 202H1465.55ZM1499.41 174.203H1530.34C1540.09 174.203 1548.52 172.392 1555.63 168.769C1562.88 165.007 1568.45 159.712 1572.35 152.885C1576.39 146.058 1578.41 138.046 1578.41 128.85C1578.41 119.515 1576.39 111.503 1572.35 104.815C1568.45 97.9877 1562.88 92.7627 1555.63 89.14C1548.52 85.378 1540.09 83.497 1530.34 83.497H1499.41V174.203ZM1616.95 202L1682.16 55.7H1715.6L1781.02 202H1745.49L1691.98 72.838H1705.36L1651.65 202H1616.95ZM1649.56 170.65L1658.54 144.943H1733.78L1742.98 170.65H1649.56ZM1823.58 202V142.226L1831.31 162.708L1766.94 55.7H1802.89L1852.21 137.837H1831.52L1881.06 55.7H1914.29L1849.92 162.708L1857.44 142.226V202H1823.58Z" fill="#222222"/>
</g>
<defs>
<clipPath id="clip0_27_5">
<rect width="1920" height="239" fill="white"/>
</clipPath>
</defs>
</svg>
