<svg width="32" height="32" viewBox="0 0 32 32" fill="none" xmlns="http://www.w3.org/2000/svg">
<rect width="32" height="32" rx="16" fill="#6A6A6A"/>
<path d="M16.042 22V19.624L15.888 19.118V14.96C15.888 14.1533 15.646 13.53 15.162 13.09C14.678 12.6353 13.9447 12.408 12.962 12.408C12.302 12.408 11.6493 12.5107 11.004 12.716C10.3733 12.9213 9.838 13.2073 9.398 13.574L8.32 11.572C8.95067 11.088 9.69867 10.7287 10.564 10.494C11.444 10.2447 12.3533 10.12 13.292 10.12C14.9933 10.12 16.306 10.5307 17.23 11.352C18.1687 12.1587 18.638 13.4127 18.638 15.114V22H16.042ZM12.346 22.154C11.466 22.154 10.696 22.0073 10.036 21.714C9.376 21.406 8.86267 20.988 8.496 20.46C8.144 19.9173 7.968 19.3087 7.968 18.634C7.968 17.974 8.122 17.38 8.43 16.852C8.75267 16.324 9.27333 15.906 9.992 15.598C10.7107 15.29 11.664 15.136 12.852 15.136H16.262V16.962H13.05C12.1113 16.962 11.4807 17.116 11.158 17.424C10.8353 17.7173 10.674 18.084 10.674 18.524C10.674 19.0227 10.872 19.4187 11.268 19.712C11.664 20.0053 12.214 20.152 12.918 20.152C13.5927 20.152 14.194 19.998 14.722 19.69C15.2647 19.382 15.6533 18.9273 15.888 18.326L16.35 19.976C16.086 20.6653 15.6093 21.2007 14.92 21.582C14.2453 21.9633 13.3873 22.154 12.346 22.154ZM23.0473 22.154C22.5486 22.154 22.1233 21.9853 21.7713 21.648C21.4193 21.296 21.2433 20.856 21.2433 20.328C21.2433 19.7707 21.4193 19.3307 21.7713 19.008C22.1233 18.6707 22.5486 18.502 23.0473 18.502C23.5459 18.502 23.9713 18.6707 24.3233 19.008C24.6753 19.3307 24.8513 19.7707 24.8513 20.328C24.8513 20.856 24.6753 21.296 24.3233 21.648C23.9713 21.9853 23.5459 22.154 23.0473 22.154Z" fill="white"/>
</svg>
